# xmcd CD database file
#
# Track frame offsets:
#	150
#	38762
#	56654
#	79473
#	104167
#	119224
#	138695
#	177252
#	193745
#	236301
#	256562
#
# Disc length: 3628 seconds
#
# Revision: 2
# Processed by: cddbd v1.5.1PL0 Copyright (c) Steve Scherf et al.
# Submitted via: CDex 1.51
#
DISCID=a10e2a0b
DTITLE=Tangerine Dream - Tangerine Tree - Volume 49 - Berlin 1990 Cd 1
DYEAR=1990
DGENRE=New Age
TTITLE0=Marakesh
TTITLE1=Atlas Eyes
TTITLE2=Gaudi Park
TTITLE3=Cat Scan
TTITLE4=Teetering Scales
TTITLE5=Lily On The Beach
TTITLE6=Nomad's Scale
TTITLE7=Daybreak On The River Spree
TTITLE8=Longing For Cashba
TTITLE9=Mount Shasta
TTITLE10=Alaskan Summer
EXTD=YEAR: 1990
EXTT0=
EXTT1=
EXTT2=
EXTT3=
EXTT4=
EXTT5=
EXTT6=
EXTT7=
EXTT8=
EXTT9=
EXTT10=
PLAYORDER=
